PathFileType	4	(X/Y/Z)	C:\Users\WrightLab\Desktop\Jo\P5V137.trc
DataRate	CameraRate	NumFrames	NumMarkers	Units	OrigDataRate	OrigDataStartFrame	OrigNumFrames
100.00	100.00	       67	19	mm	100.00	401	       534
Frame#	Time	Headset_Front			Headset_Back			Headset_Left			Headset_Right			Left_Shoulder			Right_Shoulder			Sternum			C7			Left Elbow			Right Elbow			Left Wrist			Right Wrist			Left ASIS			Right ASIS			S2			Left Knee			Right Knee			Left Ankle			Right Ankle			
		X1	Y1	Z1	X2	Y2	Z2	X3	Y3	Z3	X4	Y4	Z4	X5	Y5	Z5	X6	Y6	Z6	X7	Y7	Z7	X8	Y8	Z8	X9	Y9	Z9	X10	Y10	Z10	X11	Y11	Z11	X12	Y12	Z12	X13	Y13	Z13	X14	Y14	Z14	X15	Y15	Z15	X16	Y16	Z16	X17	Y17	Z17	X18	Y18	Z18	X19	Y19	Z19	

401	4.000																																								-338.61218	988.34363	1759.77588							-329.29825	552.03406	1790.01135	-638.35352	270.06082	2029.20764				
402	4.010																																								-336.75757	989.80457	1760.08105							-329.99606	550.43933	1784.38342	-617.42371	264.00571	2052.27100				
403	4.020																																								-335.44482	990.80737	1759.00183							-331.65472	550.34637	1777.84753	-595.74640	259.04218	2074.34277				
404	4.030																																								-334.31067	991.40710	1757.95862							-333.87064	548.94165	1773.12744	-573.23889	250.94156	2092.02197				
405	4.040																																								-332.79547	993.17188	1758.56824							-337.22821	547.93756	1768.45715	-548.91394	246.08882	2112.08228				
406	4.050																																								-332.07516	994.53180	1757.24719							-340.66000	547.50879	1766.19702	-523.58185	241.81709	2130.23828				
407	4.060																																								-331.58401	994.98578	1757.74292							-344.16183	546.37750	1764.12842	-497.17111	237.48703	2146.36816				
408	4.070																																								-331.08179	995.76202	1756.92236							-348.46942	545.38641	1760.05200	-470.62360	233.85736	2161.99951				
409	4.080																																								-331.16556	996.88202	1754.49414							-353.12457	544.42126	1757.65613	-443.10095	230.45555	2174.66699				
410	4.090																																								-330.96848	996.21338	1753.70654							-357.46564	543.68274	1757.87280	-415.29837	227.76671	2186.71387				
411	4.100																																								-330.99365	996.69214	1753.19128							-361.70047	544.00653	1755.92236	-387.54593	225.21642	2196.12158				
412	4.110																																								-333.61893	996.48602	1755.85364							-364.74060	545.35126	1754.75281	-359.36957	222.36325	2203.41577				
413	4.120																																																	-370.71567	545.73230	1756.66272	-331.07202	220.80609	2208.59888				
414	4.130																																																	-374.16479	546.63782	1758.92029	-303.67117	219.37798	2212.07202				
415	4.140																																																	-377.81146	546.44293	1760.87268	-277.07938	217.68573	2213.14453				
416	4.150																																																	-381.02173	546.51605	1761.92969	-251.14050	216.08159	2212.76440				
417	4.160																																																	-383.57855	545.76819	1765.98975	-227.59851	215.12180	2210.60938				
418	4.170																																																	-386.25443	546.48157	1766.76038	-206.42213	214.55411	2208.64209				
419	4.180																																																	-388.13675	545.34076	1769.56592	-185.44939	213.39055	2206.39795				
420	4.190																																																	-389.96164	546.16638	1772.00037	-167.14532	210.08029	2200.91797				
421	4.200																																																	-391.79996	546.72925	1774.31653	-150.30502	206.99451	2196.11401				
422	4.210																																																	-394.00467	546.90668	1776.88611	-136.84320	204.73885	2191.07275				
423	4.220																																																	-395.87216	547.18646	1779.57605	-123.38760	202.06870	2187.46216				
424	4.230																																																	-397.31702	547.37555	1781.90735	-113.48099	199.39275	2182.96533				
425	4.240																																																	-399.91257	547.82587	1783.45496	-104.86240	196.24010	2179.63623				
426	4.250																																																	-402.08533	548.22888	1785.69824	-98.80895	191.90796	2179.27661				
427	4.260																																																	-404.00815	547.92938	1787.51086	-96.72066	189.37273	2186.19629				
428	4.270																																																	-406.64716	548.05438	1789.57666	-98.83818	184.03137	2191.50024				
429	4.280																																																	-408.86234	549.68231	1790.04712	-101.69621	178.42319	2197.14990				
430	4.290																																																	-411.19150	548.88300	1792.20142	-103.60767	175.82285	2201.14624				
431	4.300																																																	-413.28934	546.79773	1795.47961	-102.11310	171.29120	2201.23022				
432	4.310																																																	-416.10645	546.14417	1796.98877	-102.71158	168.79846	2203.82129				
433	4.320																																																	-417.84488	544.98505	1798.10193	-105.61667	164.84904	2205.24805				
434	4.330																																																	-419.59082	544.11230	1799.69226	-107.64488	160.90900	2205.74585				
435	4.340																																																	-420.47821	542.73950	1802.70532	-110.22350	159.58366	2206.13916				
436	4.350																																																	-420.79385	541.60394	1806.40332	-109.64429	157.12239	2206.15845				
437	4.360																																																	-420.61447	540.77808	1809.99182	-109.43984	155.38725	2205.35303				
438	4.370																																																	-418.32007	540.62213	1815.50293	-107.78582	154.41341	2205.98486				
439	4.380																																																	-415.54837	539.66003	1817.92615	-105.93385	154.24677	2207.58594				
440	4.390																																																	-411.75659	539.26880	1822.29883	-105.31174	153.67381	2207.90967				
441	4.400																																																	-408.22656	538.08063	1828.39722	-105.17939	153.61928	2208.17017				
442	4.410																																																	-404.02554	537.73743	1832.27466	-102.88412	151.56110	2208.14941				
443	4.420																																																	-399.23083	535.90503	1838.98267	-102.10350	151.06152	2209.56104				
444	4.430																																																	-393.75696	535.82269	1843.61548	-102.08156	150.40930	2210.36572				
445	4.440																																																	-389.12723	534.87805	1851.44250	-101.63881	148.80585	2210.01782				
446	4.450																																																	-384.27606	532.71082	1859.34094	-101.33261	147.90332	2210.52124				
447	4.460																																																	-380.31580	533.26965	1864.82178	-101.32005	147.33218	2211.19946				
448	4.470																																																	-375.88968	530.81018	1873.34155	-101.29193	147.15994	2211.46167				
449	4.480																																																	-372.79178	531.27863	1881.32581	-101.38549	147.01355	2211.79932				
450	4.490																																																	-369.72977	531.56531	1892.16211	-101.02669	147.69951	2212.84204				
451	4.500																																																	-367.48370	534.03412	1902.07654	-100.94315	147.69914	2212.94263				
452	4.510																																																	-364.92746	537.16693	1908.59521	-99.68068	147.24182	2213.21875				
453	4.520																																																	-362.26990	543.81482	1911.21375	-99.25436	146.95697	2213.33936				
454	4.530																																																	-362.04916	549.57819	1914.25488	-98.89657	146.92566	2213.19653				
455	4.540																																																	-364.63229	553.11871	1920.28430	-97.55248	147.17508	2214.51514				
456	4.550																																																	-367.80688	556.52423	1921.45227	-97.52278	147.17708	2214.54688				
457	4.560																																																	-371.95966	558.48688	1924.20947	-97.36799	147.12463	2214.50244				
458	4.570																																																	-376.82779	559.28906	1929.49316	-97.35291	147.12439	2214.52100				
459	4.580																																																	-381.39780	558.66077	1933.66943	-97.36373	146.97546	2214.73584				
460	4.590																																																	-386.61139	558.80536	1940.70630	-97.15447	146.94568	2214.65527				
461	4.600																																																	-392.00916	557.03314	1949.52380	-96.95140	147.02840	2214.43726				
462	4.610																																																	-397.76355	558.12921	1954.72314	-96.76181	146.77879	2214.60815				
463	4.620																																																	-403.03055	558.06818	1960.18201	-96.74293	146.75722	2214.67188				
464	4.630																																																	-408.60638	558.18097	1968.11560	-96.29505	147.39729	2215.62866				
465	4.640																																																	-413.61148	557.75842	1976.32532	-96.27213	147.41278	2215.62671				
466	4.650																																																	-418.73080	558.72260	1982.00354	-96.06297	147.41489	2215.47266				
467	4.660																																																	-422.56192	558.18860	1989.53540	-96.29998	146.87990	2214.28540				
